<?xml version="1.0" encoding="utf-8"?>
<!-- Generator: Adobe Illustrator 24.2.1, SVG Export Plug-In . SVG Version: 6.00 Build 0)  -->
<svg version="1.1" id="Layer_1" xmlns="http://www.w3.org/2000/svg" xmlns:xlink="http://www.w3.org/1999/xlink" x="0px" y="0px"
	 viewBox="0 0 841.89 595.28" style="enable-background:new 0 0 841.89 595.28;" xml:space="preserve">
<style type="text/css">
	.st0{fill:#E7BA9E;}
	.st1{fill:#4949F2;}
	.st2{clip-path:url(#SVGID_2_);fill:#E7BA9E;}
	.st3{clip-path:url(#SVGID_2_);fill:#4949F2;}
	.st4{clip-path:url(#SVGID_4_);fill:#E7BA9E;}
	.st5{clip-path:url(#SVGID_4_);fill:#FFFFFF;}
	.st6{clip-path:url(#SVGID_6_);fill:#FFFFFF;}
	.st7{clip-path:url(#SVGID_8_);fill:#FFFFFF;}
	.st8{clip-path:url(#SVGID_10_);fill:#FFFFFF;}
	.st9{clip-path:url(#SVGID_10_);fill:#4949F2;}
</style>
<g>
	<g>
		<path class="st0" d="M199.85,225.5v136.74c0,2.68-1.78,4.46-4.46,4.46h-32.4c-2.67,0-4.16-1.78-4.46-4.46l-0.89-10.7
			c-10.11,11.3-23.78,19.02-41.62,19.02c-40.43,0-70.15-33.89-70.15-76.4c0-42.51,29.73-76.4,70.15-76.4
			c17.24,0,31.21,8.03,41.62,19.92l0.89-12.19c0.3-2.68,1.78-4.46,4.46-4.46h32.4C198.06,221.04,199.85,222.82,199.85,225.5z
			 M154.37,293.87c0-19.32-13.97-35.67-32.7-35.67c-19.02,0-33,15.46-33,35.67c0,20.51,13.97,35.97,33,35.97
			C140.39,329.84,154.37,313.19,154.37,293.87z"/>
		<path class="st0" d="M322.61,324.49c0,29.73-30.32,46.08-57.37,46.08c-24.97,0-45.48-12.19-55.88-24.38
			c-1.78-2.08-1.19-4.16,0-5.95l13.38-19.02c1.49-2.08,3.87-1.49,6.54,0c13.38,8.32,25.27,12.19,34.78,12.19
			c6.84,0,15.16-1.49,15.16-9.51c0-19.62-67.18-11.3-67.18-60.34c0-29.43,25.27-45.78,51.43-45.78c19.92,0,38.94,7.73,51.13,22
			c1.78,2.08,1.19,4.46-0.3,6.24l-13.38,17.54c-1.78,2.38-3.57,1.49-6.54-0.3c-11-6.54-17.24-10.11-26.46-10.11
			c-8.92,0-13.08,5.05-13.08,10.11C254.83,283.76,322.61,270.68,322.61,324.49z"/>
		<path class="st0" d="M479.97,366.7h-38.35c-2.38,0-3.87-0.59-5.35-2.68l-40.43-53.8l-17.54,19.02v33c0,2.68-1.78,4.46-4.46,4.46
			h-35.67c-2.67,0-4.46-1.78-4.46-4.46V154.16c0-2.68,1.78-4.46,4.46-4.46h35.67c2.67,0,4.46,1.78,4.46,4.46v120.98l47.56-51.72
			c1.49-1.78,2.97-2.38,5.06-2.38h40.43c3.87,0,5.05,2.68,2.38,5.35l-50.83,54.7l59.75,80.26
			C484.43,364.32,483.54,366.7,479.97,366.7z"/>
		<path class="st0" d="M493.94,221.04h35.67c2.67,0,4.46,1.78,4.46,4.46v136.74c0,2.68-1.78,4.46-4.46,4.46h-35.67
			c-2.67,0-4.46-1.78-4.46-4.46V225.5C489.48,222.82,491.26,221.04,493.94,221.04z"/>
		<path class="st0" d="M794.46,280.49v81.75c0,2.68-1.78,4.46-4.46,4.46h-35.67c-2.67,0-4.46-1.78-4.46-4.46v-72.83
			c0-23.48-13.08-30.32-24.97-30.32c-18.73,0-28.24,15.46-28.24,24.67v78.48c0,2.68-1.78,4.46-4.46,4.46h-35.67
			c-2.68,0-4.46-1.78-4.46-4.46v-72.83c0-23.48-13.08-30.32-24.97-30.32c-19.92,0-28.24,19.62-28.24,26.75v76.4
			c0,2.68-1.78,4.46-4.46,4.46h-35.67c-2.67,0-4.46-1.78-4.46-4.46V225.5c0-2.68,1.78-4.46,4.46-4.46h34.48
			c2.67,0,4.16,1.78,4.46,4.46l1.19,18.43c9.22-15.16,24.08-26.16,44.89-26.16c18.73,0,35.08,9.51,44.29,26.46
			c10.4-15.46,27.65-26.46,50.53-26.46C770.98,217.77,794.46,241.55,794.46,280.49z"/>
	</g>
	<g>
		<g>
			<path class="st1" d="M363.51,394.43l-14.69,20.57l-2.46,17.43c-0.06,0.51-0.4,0.8-0.97,0.8h-7.03c-0.57,0-0.86-0.46-0.8-0.97
				l2.46-17.72l-8.63-20.23c-0.23-0.57-0.06-1.09,0.63-1.09h6.97c0.57,0,1.03,0.51,1.2,0.97l5.26,12.17l8.74-12.52
				c0.29-0.46,0.63-0.63,1.09-0.63h7.54C363.51,393.23,363.91,393.86,363.51,394.43z"/>
			<path class="st1" d="M383.57,419.29c-0.29,2.11-0.51,3.03-2.29,3.03h-17.32c0.23,3.2,2.46,4.8,6.17,4.8
				c2.23,0,3.83-0.51,5.66-1.83c0.57-0.4,1.03-0.23,1.43,0.23l2.63,3.09c0.34,0.4,0.57,1.14,0,1.6c-3.03,2.4-6.86,3.77-10.69,3.77
				c-9.03,0-14.29-6.74-13.14-15.2c1.14-8,7.89-14.17,15.83-14.17C380.2,404.61,384.71,411.29,383.57,419.29z M364.77,416.89h11.54
				c0.06-3.49-2-5.09-4.8-5.09C368.71,411.81,366.02,413.52,364.77,416.89z"/>
			<path class="st1" d="M414.32,416.89l-2.17,15.54c-0.06,0.46-0.4,0.8-0.97,0.8h-6.8c-0.51,0-0.86-0.46-0.8-0.86l2-14.23
				c0.69-4.57-1.54-5.6-3.66-5.6c-4,0-6.34,4.06-6.57,5.37l-2,14.52c-0.06,0.46-0.4,0.8-0.97,0.8h-6.8c-0.51,0-0.91-0.46-0.86-0.86
				l3.77-26.35c0.06-0.51,0.4-0.8,0.91-0.8h6.46c0.51,0,0.91,0.57,0.91,1.09l-0.29,3.14c2.17-2.97,5.2-4.86,9.03-4.86
				C411.34,404.61,415.4,409.46,414.32,416.89z"/>
			<path class="st1" d="M420.83,405.23h6.69c0.51,0,0.97,0.57,0.91,1.14l-3.66,26.06c-0.06,0.46-0.4,0.8-0.97,0.8H417
				c-0.46,0-0.86-0.46-0.8-0.86l3.71-26.35C419.98,405.52,420.32,405.23,420.83,405.23z M421.12,395.23
				c0.29-2.29,2.46-4.12,4.8-4.12c2.74,0,4.63,2.29,4.23,5.09c-0.29,2.29-2.4,4.12-4.74,4.12
				C422.66,400.32,420.72,398.03,421.12,395.23z"/>
			<path class="st1" d="M479.18,394.43l-14.69,20.57l-2.46,17.43c-0.06,0.51-0.4,0.8-0.97,0.8h-7.03c-0.57,0-0.86-0.46-0.8-0.97
				l2.46-17.72l-8.63-20.23c-0.23-0.57-0.06-1.09,0.63-1.09h6.97c0.57,0,1.03,0.51,1.2,0.97l5.26,12.17l8.74-12.52
				c0.29-0.46,0.63-0.63,1.09-0.63h7.54C479.18,393.23,479.58,393.86,479.18,394.43z"/>
			<path class="st1" d="M471.53,421.01c0-9.03,7.72-16.4,16.29-16.4c7.6,0,13.03,5.6,13.03,12.97c0,8.8-7.6,16.4-16.35,16.4
				C476.96,433.98,471.53,428.38,471.53,421.01z M492.67,417.98c0-3.26-2.17-5.43-5.49-5.43c-4,0-7.49,3.71-7.49,8
				c0,3.31,2.23,5.49,5.49,5.49C489.19,426.04,492.67,422.32,492.67,417.98z"/>
			<path class="st1" d="M508.51,391.52h6.74c0.51,0,0.91,0.57,0.86,1.14l-5.6,39.77c-0.06,0.46-0.4,0.8-0.97,0.8h-6.8
				c-0.51,0-0.86-0.46-0.8-0.86l5.66-40.06C507.65,391.8,507.99,391.52,508.51,391.52z"/>
			<path class="st1" d="M562.28,433.24h-7.09c-0.63,0-0.86-0.46-1.03-0.97l-1.14-6.06h-14l-2.92,6.23c-0.29,0.57-0.63,0.8-1.09,0.8
				h-7.49c-0.63,0-1.03-0.69-0.74-1.26l19.15-38.06c0.29-0.51,0.69-0.69,1.2-0.69h6.46c0.52,0,0.92,0.4,1.03,0.91l8.4,38.06
				C563.14,432.89,562.86,433.24,562.28,433.24z M551.6,418.72l-2.57-13.83l-6.46,13.83H551.6z"/>
			<path class="st1" d="M588.92,407.63l-2.4,4.63c-0.29,0.57-0.74,0.46-1.26,0.4c-0.69-0.23-1.43-0.29-2.23-0.29
				c-3.83,0-6.51,2.91-6.97,6.29l-1.94,13.77c-0.06,0.46-0.4,0.8-0.97,0.8h-6.8c-0.51,0-0.91-0.46-0.86-0.86l3.77-26.35
				c0.06-0.51,0.4-0.8,0.92-0.8h6.4c0.52,0,0.97,0.57,0.92,1.09l-0.29,2.8c1.89-2.74,4.29-4.52,7.43-4.52
				c1.83,0,3.26,0.97,3.94,1.83C588.92,406.83,589.15,407.18,588.92,407.63z"/>
			<path class="st1" d="M617.66,406.43l-11.49,10.57l9.2,15.37c0.29,0.57,0.34,0.86-0.34,0.86h-7.31c-0.46,0-0.8-0.34-0.97-0.74
				l-6.4-10.06l-4.06,3.71l-0.86,6.29c-0.06,0.46-0.4,0.8-0.97,0.8h-6.8c-0.51,0-0.86-0.46-0.8-0.86l5.66-40.06
				c0.06-0.51,0.4-0.8,0.92-0.8h6.74c0.51,0,0.91,0.57,0.86,1.14l-3.2,22.8l10.12-9.72c0.46-0.46,0.86-0.51,1.26-0.51h7.77
				C617.72,405.23,618.18,405.92,617.66,406.43z"/>
			<path class="st1" d="M646.81,406.32l-3.72,26.29c-0.06,0.51-0.23,0.63-0.74,0.63h-6.17c-0.51,0-0.91-0.57-0.86-1.09l0.06-1.66
				c-2.4,2.11-5.2,3.49-8.17,3.49c-7.2,0-11.94-5.49-11.94-12.74c0-8.74,6.74-16.63,15.32-16.63c3.49,0,6.06,1.71,7.83,4.12
				l0.52-2.74c0.11-0.51,0.46-0.74,0.97-0.74h6C646.41,405.23,646.87,405.81,646.81,406.32z M636.41,417.92
				c0-3.09-2.11-5.54-5.49-5.54c-3.83,0-7.43,3.6-7.43,8.29c0,3.2,2.11,5.49,5.43,5.49C632.93,426.15,636.41,422.26,636.41,417.92z"
				/>
			<path class="st1" d="M681.16,392.66l-5.6,39.95c-0.11,0.51-0.23,0.63-0.74,0.63h-6.23c-0.51,0-0.86-0.57-0.86-1.09l0.17-1.66
				c-2.34,2.17-5.03,3.49-8.29,3.49c-7.94,0-12.91-6.74-11.72-15.14c1.09-7.94,7.49-14.23,15.09-14.23c3.2,0,5.54,1.49,7.31,3.49
				l2.34-15.77c0.06-0.51,0.4-0.8,0.92-0.8h6.74C680.82,391.52,681.22,392.09,681.16,392.66z M668.82,417.92
				c0-3.09-2.11-5.54-5.49-5.54c-3.83,0-7.43,3.6-7.43,8.29c0,3.2,2.11,5.49,5.43,5.49C665.33,426.15,668.82,422.26,668.82,417.92z"
				/>
			<path class="st1" d="M711.62,406.32l-3.72,26.29c-0.06,0.51-0.23,0.63-0.74,0.63h-6.17c-0.51,0-0.91-0.57-0.86-1.09l0.06-1.66
				c-2.4,2.11-5.2,3.49-8.17,3.49c-7.2,0-11.94-5.49-11.94-12.74c0-8.74,6.74-16.63,15.32-16.63c3.49,0,6.06,1.71,7.83,4.12
				l0.52-2.74c0.11-0.51,0.46-0.74,0.97-0.74h6C711.22,405.23,711.68,405.81,711.62,406.32z M701.22,417.92
				c0-3.09-2.11-5.54-5.49-5.54c-3.83,0-7.43,3.6-7.43,8.29c0,3.2,2.11,5.49,5.43,5.49C697.74,426.15,701.22,422.26,701.22,417.92z"
				/>
			<path class="st1" d="M721.97,413.52c0,3.71,11.43,2,11.43,10.51c0,5.66-4.74,9.14-10,9.83l-1.6,1.2c2.52,0.4,4.91,2.23,4.46,5.26
				c-0.69,4.97-5.94,6.17-10.8,5.31c-0.52,0-0.8-0.46-0.74-0.8l0.4-2.91c0.06-0.34,0.06-0.34,0.29-0.34
				c3.2,0.34,5.09-0.46,5.31-1.83c0.06-0.63-1.6-1.14-4.23-0.17c-0.63,0.11-0.97-0.4-0.97-0.8l0.46-3.14
				c0.06-0.29,0.06-0.46,0.23-0.63l2-1.43c-3.26-0.8-5.54-2.74-6.86-4.69c-0.29-0.4-0.4-0.74-0.11-1.09l2.52-3.03
				c0.34-0.46,0.91-0.34,1.49,0c2.51,1.49,4.63,2.06,6.29,2.06c1.6,0,3.66-0.69,3.66-2.34c0-3.37-11.43-2.69-11.43-10.69
				c0-6.17,5.6-9.2,10.8-9.2c3.94,0,7.37,1.71,9.26,4.52c0.29,0.46,0.52,0.8,0.17,1.26l-2.74,2.91c-0.29,0.34-0.63,0.29-1.14-0.06
				c-2.11-1.43-3.43-1.83-5.03-1.83S721.97,412.03,721.97,413.52z"/>
			<path class="st1" d="M739.69,405.23h6.69c0.51,0,0.97,0.57,0.91,1.14l-3.66,26.06c-0.06,0.46-0.4,0.8-0.97,0.8h-6.8
				c-0.51,0-0.91-0.46-0.86-0.86l3.77-26.35C738.83,405.52,739.17,405.23,739.69,405.23z"/>
			<path class="st1" d="M795.86,416.89l-2.23,15.54c-0.06,0.46-0.4,0.8-0.97,0.8h-6.8c-0.46,0-0.86-0.46-0.8-0.86l2-14.23
				c0.69-4.57-1.54-5.6-3.6-5.6c-3.83,0-6.29,3.2-6.51,4.97l-2.11,14.92c-0.06,0.46-0.4,0.8-0.97,0.8h-6.8
				c-0.52,0-0.86-0.46-0.8-0.86l2-14.23c0.69-4.57-1.54-5.6-3.66-5.6c-4,0-6.34,4.06-6.57,5.37l-2,14.52
				c-0.06,0.46-0.4,0.8-0.97,0.8h-6.8c-0.51,0-0.91-0.46-0.86-0.86l3.77-26.35c0.06-0.51,0.4-0.8,0.92-0.8h6.46
				c0.51,0,0.91,0.57,0.91,1.09l-0.29,3.14c2.17-2.97,5.2-4.86,9.03-4.86c3.77,0,6.69,2,8,5.09c2.57-3.14,6.06-5.09,10.23-5.09
				C792.83,404.61,796.89,409.46,795.86,416.89z"/>
		</g>
	</g>
	<circle class="st1" cx="263.03" cy="169.49" r="20.11"/>
</g>
<g>
	<defs>
		<rect id="SVGID_1_" x="1861.06" y="-14.66" width="196.97" height="196.97"/>
	</defs>
	<clipPath id="SVGID_2_">
		<use xlink:href="#SVGID_1_"  style="overflow:visible;"/>
	</clipPath>
	<path class="st2" d="M2058.03,79.09v100.14c0,1.96-1.31,3.27-3.27,3.27h-23.73c-1.96,0-3.05-1.31-3.27-3.27l-0.65-7.84
		c-7.4,8.27-17.42,13.93-30.48,13.93c-29.61,0-51.38-24.82-51.38-55.95c0-31.13,21.77-55.95,51.38-55.95
		c12.63,0,22.86,5.88,30.48,14.59l0.65-8.93c0.22-1.96,1.31-3.27,3.27-3.27h23.73C2056.73,75.82,2058.03,77.13,2058.03,79.09z
		 M2024.72,129.16c0-14.15-10.23-26.12-23.95-26.12c-13.93,0-24.17,11.32-24.17,26.12c0,15.02,10.23,26.34,24.17,26.34
		C2014.49,155.5,2024.72,143.31,2024.72,129.16z"/>
	<circle class="st3" cx="1887.94" cy="12.22" r="26.88"/>
</g>
<g>
	<defs>
		<rect id="SVGID_3_" x="1644.09" y="-14.66" width="196.97" height="196.97"/>
	</defs>
	<use xlink:href="#SVGID_3_"  style="overflow:visible;fill:#4949F2;"/>
	<clipPath id="SVGID_4_">
		<use xlink:href="#SVGID_3_"  style="overflow:visible;"/>
	</clipPath>
	<path class="st4" d="M1841.06,79.09v100.14c0,1.96-1.31,3.27-3.27,3.27h-23.73c-1.96,0-3.05-1.31-3.27-3.27l-0.65-7.84
		c-7.4,8.27-17.42,13.93-30.48,13.93c-29.61,0-51.38-24.82-51.38-55.95c0-31.13,21.77-55.95,51.38-55.95
		c12.63,0,22.86,5.88,30.48,14.59l0.65-8.93c0.22-1.96,1.31-3.27,3.27-3.27h23.73C1839.76,75.82,1841.06,77.13,1841.06,79.09z
		 M1807.75,129.16c0-14.15-10.23-26.12-23.95-26.12c-13.93,0-24.17,11.32-24.17,26.12c0,15.02,10.23,26.34,24.17,26.34
		C1797.52,155.5,1807.75,143.31,1807.75,129.16z"/>
	<circle class="st5" cx="1670.97" cy="12.22" r="26.88"/>
</g>
<g>
	<defs>
		<rect id="SVGID_5_" x="1427.12" y="-14.66" width="196.97" height="196.97"/>
	</defs>
	<use xlink:href="#SVGID_5_"  style="overflow:visible;fill:#4949F2;"/>
	<clipPath id="SVGID_6_">
		<use xlink:href="#SVGID_5_"  style="overflow:visible;"/>
	</clipPath>
	<path class="st6" d="M1624.09,79.09v100.14c0,1.96-1.31,3.27-3.27,3.27h-23.73c-1.96,0-3.05-1.31-3.27-3.27l-0.65-7.84
		c-7.4,8.27-17.42,13.93-30.48,13.93c-29.61,0-51.38-24.82-51.38-55.95c0-31.13,21.77-55.95,51.38-55.95
		c12.63,0,22.86,5.88,30.48,14.59l0.65-8.93c0.22-1.96,1.31-3.27,3.27-3.27h23.73C1622.79,75.82,1624.09,77.13,1624.09,79.09z
		 M1590.78,129.16c0-14.15-10.23-26.12-23.95-26.12c-13.93,0-24.16,11.32-24.16,26.12c0,15.02,10.23,26.34,24.16,26.34
		C1580.55,155.5,1590.78,143.31,1590.78,129.16z"/>
	<circle class="st6" cx="1454" cy="12.22" r="26.88"/>
</g>
<g>
	<defs>
		<rect id="SVGID_7_" x="1210.15" y="-14.66" width="196.97" height="196.97"/>
	</defs>
	<use xlink:href="#SVGID_7_"  style="overflow:visible;fill:#E7BA9E;"/>
	<clipPath id="SVGID_8_">
		<use xlink:href="#SVGID_7_"  style="overflow:visible;"/>
	</clipPath>
	<path class="st7" d="M1407.12,79.09v100.14c0,1.96-1.31,3.27-3.27,3.27h-23.73c-1.96,0-3.05-1.31-3.27-3.27l-0.65-7.84
		c-7.4,8.27-17.42,13.93-30.48,13.93c-29.61,0-51.38-24.82-51.38-55.95c0-31.13,21.77-55.95,51.38-55.95
		c12.63,0,22.86,5.88,30.48,14.59l0.65-8.93c0.22-1.96,1.31-3.27,3.27-3.27h23.73C1405.82,75.82,1407.12,77.13,1407.12,79.09z
		 M1373.81,129.16c0-14.15-10.23-26.12-23.95-26.12c-13.93,0-24.17,11.32-24.17,26.12c0,15.02,10.23,26.34,24.17,26.34
		C1363.58,155.5,1373.81,143.31,1373.81,129.16z"/>
	<circle class="st7" cx="1237.03" cy="12.22" r="26.88"/>
</g>
<g>
	<defs>
		<rect id="SVGID_9_" x="993.18" y="-14.66" width="196.97" height="196.97"/>
	</defs>
	<use xlink:href="#SVGID_9_"  style="overflow:visible;fill:#E7BA9E;"/>
	<clipPath id="SVGID_10_">
		<use xlink:href="#SVGID_9_"  style="overflow:visible;"/>
	</clipPath>
	<path class="st8" d="M1190.15,79.09v100.14c0,1.96-1.31,3.27-3.27,3.27h-23.73c-1.96,0-3.05-1.31-3.27-3.27l-0.65-7.84
		c-7.4,8.27-17.42,13.93-30.48,13.93c-29.61,0-51.38-24.82-51.38-55.95c0-31.13,21.77-55.95,51.38-55.95
		c12.63,0,22.86,5.88,30.48,14.59l0.65-8.93c0.22-1.96,1.31-3.27,3.27-3.27h23.73C1188.85,75.82,1190.15,77.13,1190.15,79.09z
		 M1156.84,129.16c0-14.15-10.23-26.12-23.95-26.12c-13.93,0-24.17,11.32-24.17,26.12c0,15.02,10.23,26.34,24.17,26.34
		C1146.61,155.5,1156.84,143.31,1156.84,129.16z"/>
	<circle class="st9" cx="1020.06" cy="12.22" r="26.88"/>
</g>
</svg>
